<mxfile host="app.diagrams.net" agent="Mozilla/5.0 (Macintosh; Intel Mac OS X 10_15_7) AppleWebKit/537.36 (KHTML, like Gecko) Chrome/134.0.0.0 Safari/537.36" version="27.0.2" pages="3">
  <diagram name="Page-1" id="43ygJv8Q7BJEaVs4GSYn">
    <mxGraphModel dx="1234" dy="1839" grid="1" gridSize="10" guides="1" tooltips="1" connect="1" arrows="1" fold="1" page="1" pageScale="1" pageWidth="850" pageHeight="1100" math="0" shadow="0">
      <root>
        <mxCell id="0" />
        <mxCell id="1" parent="0" />
        <mxCell id="LOD8vamf45jOHXwv3K5U-1" value="Server" style="rounded=0;whiteSpace=wrap;html=1;fontSize=16;" vertex="1" parent="1">
          <mxGeometry x="30" y="270" width="120" height="60" as="geometry" />
        </mxCell>
        <mxCell id="LOD8vamf45jOHXwv3K5U-2" value="Database Parser" style="rounded=0;whiteSpace=wrap;html=1;fontSize=16;" vertex="1" parent="1">
          <mxGeometry x="430" y="90" width="120" height="60" as="geometry" />
        </mxCell>
        <mxCell id="LOD8vamf45jOHXwv3K5U-3" value="Service Manager" style="rounded=0;whiteSpace=wrap;html=1;fontSize=16;" vertex="1" parent="1">
          <mxGeometry x="240" y="270" width="120" height="60" as="geometry" />
        </mxCell>
        <mxCell id="LOD8vamf45jOHXwv3K5U-4" value="Bundle Parser" style="rounded=0;whiteSpace=wrap;html=1;fontSize=16;" vertex="1" parent="1">
          <mxGeometry x="540" y="190" width="120" height="60" as="geometry" />
        </mxCell>
        <mxCell id="LOD8vamf45jOHXwv3K5U-5" value="Document Parser" style="rounded=0;whiteSpace=wrap;html=1;fontSize=16;" vertex="1" parent="1">
          <mxGeometry x="540" y="310" width="120" height="60" as="geometry" />
        </mxCell>
        <mxCell id="LOD8vamf45jOHXwv3K5U-6" value="User Parser" style="rounded=0;whiteSpace=wrap;html=1;fontSize=16;" vertex="1" parent="1">
          <mxGeometry x="427" y="420" width="120" height="60" as="geometry" />
        </mxCell>
        <mxCell id="LOD8vamf45jOHXwv3K5U-7" value="Database Executor" style="rounded=0;whiteSpace=wrap;html=1;fontSize=16;" vertex="1" parent="1">
          <mxGeometry x="427" y="-33" width="120" height="60" as="geometry" />
        </mxCell>
        <mxCell id="LOD8vamf45jOHXwv3K5U-8" value="Bundle&amp;nbsp;&lt;div&gt;Executor&lt;/div&gt;" style="rounded=0;whiteSpace=wrap;html=1;fontSize=16;" vertex="1" parent="1">
          <mxGeometry x="750" y="190" width="120" height="60" as="geometry" />
        </mxCell>
        <mxCell id="LOD8vamf45jOHXwv3K5U-9" value="Document Executor" style="rounded=0;whiteSpace=wrap;html=1;fontSize=16;" vertex="1" parent="1">
          <mxGeometry x="750" y="310" width="120" height="60" as="geometry" />
        </mxCell>
        <mxCell id="LOD8vamf45jOHXwv3K5U-10" value="User&amp;nbsp;&lt;div&gt;Executor&lt;/div&gt;" style="rounded=0;whiteSpace=wrap;html=1;fontSize=16;" vertex="1" parent="1">
          <mxGeometry x="425" y="540" width="120" height="60" as="geometry" />
        </mxCell>
        <mxCell id="LOD8vamf45jOHXwv3K5U-11" value="" style="endArrow=classic;html=1;rounded=0;" edge="1" parent="1">
          <mxGeometry width="50" height="50" relative="1" as="geometry">
            <mxPoint x="380" y="230" as="sourcePoint" />
            <mxPoint x="430" y="180" as="targetPoint" />
          </mxGeometry>
        </mxCell>
        <mxCell id="LOD8vamf45jOHXwv3K5U-12" value="" style="endArrow=classic;html=1;rounded=0;" edge="1" parent="1">
          <mxGeometry width="50" height="50" relative="1" as="geometry">
            <mxPoint x="390" y="280" as="sourcePoint" />
            <mxPoint x="510" y="220" as="targetPoint" />
          </mxGeometry>
        </mxCell>
        <mxCell id="LOD8vamf45jOHXwv3K5U-13" value="" style="endArrow=classic;html=1;rounded=0;" edge="1" parent="1">
          <mxGeometry width="50" height="50" relative="1" as="geometry">
            <mxPoint x="390" y="320" as="sourcePoint" />
            <mxPoint x="510" y="340" as="targetPoint" />
          </mxGeometry>
        </mxCell>
        <mxCell id="LOD8vamf45jOHXwv3K5U-14" value="" style="endArrow=classic;html=1;rounded=0;" edge="1" parent="1">
          <mxGeometry width="50" height="50" relative="1" as="geometry">
            <mxPoint x="380" y="370" as="sourcePoint" />
            <mxPoint x="440" y="400" as="targetPoint" />
          </mxGeometry>
        </mxCell>
        <mxCell id="LOD8vamf45jOHXwv3K5U-15" value="" style="endArrow=classic;html=1;rounded=0;" edge="1" parent="1">
          <mxGeometry width="50" height="50" relative="1" as="geometry">
            <mxPoint x="180" y="300" as="sourcePoint" />
            <mxPoint x="230" y="300" as="targetPoint" />
          </mxGeometry>
        </mxCell>
        <mxCell id="LOD8vamf45jOHXwv3K5U-16" value="Database&lt;div&gt;Storage&lt;/div&gt;" style="rounded=0;whiteSpace=wrap;html=1;fontSize=16;" vertex="1" parent="1">
          <mxGeometry x="425" y="-162" width="120" height="60" as="geometry" />
        </mxCell>
        <mxCell id="LOD8vamf45jOHXwv3K5U-17" value="Bundle Storage" style="rounded=0;whiteSpace=wrap;html=1;fontSize=16;verticalAlign=top;" vertex="1" parent="1">
          <mxGeometry x="940" y="205" width="220" height="150" as="geometry" />
        </mxCell>
        <mxCell id="LOD8vamf45jOHXwv3K5U-18" value="Document Storage" style="rounded=0;whiteSpace=wrap;html=1;fontSize=16;" vertex="1" parent="1">
          <mxGeometry x="990" y="250" width="120" height="60" as="geometry" />
        </mxCell>
        <mxCell id="LOD8vamf45jOHXwv3K5U-19" value="User&amp;nbsp;&lt;div&gt;Storage&lt;/div&gt;" style="rounded=0;whiteSpace=wrap;html=1;fontSize=16;" vertex="1" parent="1">
          <mxGeometry x="425" y="660" width="120" height="60" as="geometry" />
        </mxCell>
        <mxCell id="LOD8vamf45jOHXwv3K5U-20" value="" style="endArrow=classic;html=1;rounded=0;" edge="1" parent="1">
          <mxGeometry width="50" height="50" relative="1" as="geometry">
            <mxPoint x="670" y="220" as="sourcePoint" />
            <mxPoint x="730" y="220" as="targetPoint" />
          </mxGeometry>
        </mxCell>
        <mxCell id="LOD8vamf45jOHXwv3K5U-21" value="" style="endArrow=classic;html=1;rounded=0;" edge="1" parent="1">
          <mxGeometry width="50" height="50" relative="1" as="geometry">
            <mxPoint x="670" y="339" as="sourcePoint" />
            <mxPoint x="730" y="339" as="targetPoint" />
          </mxGeometry>
        </mxCell>
        <mxCell id="LOD8vamf45jOHXwv3K5U-22" value="" style="endArrow=classic;html=1;rounded=0;" edge="1" parent="1">
          <mxGeometry width="50" height="50" relative="1" as="geometry">
            <mxPoint x="890" y="220" as="sourcePoint" />
            <mxPoint x="930" y="220" as="targetPoint" />
          </mxGeometry>
        </mxCell>
        <mxCell id="LOD8vamf45jOHXwv3K5U-23" value="" style="endArrow=classic;html=1;rounded=0;" edge="1" parent="1">
          <mxGeometry width="50" height="50" relative="1" as="geometry">
            <mxPoint x="888" y="329" as="sourcePoint" />
            <mxPoint x="928" y="329" as="targetPoint" />
          </mxGeometry>
        </mxCell>
        <mxCell id="LOD8vamf45jOHXwv3K5U-24" value="" style="endArrow=classic;html=1;rounded=0;" edge="1" parent="1">
          <mxGeometry width="50" height="50" relative="1" as="geometry">
            <mxPoint x="480" y="490" as="sourcePoint" />
            <mxPoint x="480" y="530" as="targetPoint" />
          </mxGeometry>
        </mxCell>
        <mxCell id="LOD8vamf45jOHXwv3K5U-25" value="" style="endArrow=classic;html=1;rounded=0;" edge="1" parent="1">
          <mxGeometry width="50" height="50" relative="1" as="geometry">
            <mxPoint x="480" y="610" as="sourcePoint" />
            <mxPoint x="480" y="650" as="targetPoint" />
          </mxGeometry>
        </mxCell>
        <mxCell id="LOD8vamf45jOHXwv3K5U-26" value="" style="endArrow=classic;html=1;rounded=0;" edge="1" parent="1">
          <mxGeometry width="50" height="50" relative="1" as="geometry">
            <mxPoint x="480" y="80" as="sourcePoint" />
            <mxPoint x="480" y="40" as="targetPoint" />
          </mxGeometry>
        </mxCell>
        <mxCell id="LOD8vamf45jOHXwv3K5U-27" value="" style="endArrow=classic;html=1;rounded=0;" edge="1" parent="1">
          <mxGeometry width="50" height="50" relative="1" as="geometry">
            <mxPoint x="480" y="-47" as="sourcePoint" />
            <mxPoint x="480" y="-87" as="targetPoint" />
          </mxGeometry>
        </mxCell>
        <mxCell id="LOD8vamf45jOHXwv3K5U-28" value="parseCreateDB" style="text;html=1;align=center;verticalAlign=middle;whiteSpace=wrap;rounded=0;fontSize=14;" vertex="1" parent="1">
          <mxGeometry x="570" y="105" width="150" height="30" as="geometry" />
        </mxCell>
        <mxCell id="LOD8vamf45jOHXwv3K5U-29" value="CreateDatabase" style="text;html=1;align=center;verticalAlign=middle;whiteSpace=wrap;rounded=0;fontSize=14;" vertex="1" parent="1">
          <mxGeometry x="570" y="-18" width="150" height="30" as="geometry" />
        </mxCell>
        <mxCell id="LOD8vamf45jOHXwv3K5U-30" value="CreateDatabaseFile" style="text;html=1;align=center;verticalAlign=middle;whiteSpace=wrap;rounded=0;fontSize=14;" vertex="1" parent="1">
          <mxGeometry x="570" y="-147" width="150" height="30" as="geometry" />
        </mxCell>
      </root>
    </mxGraphModel>
  </diagram>
  <diagram name="Copy of Page-1" id="7EnMIZNzN2xb2jHN3RoA">
    <mxGraphModel dx="1234" dy="739" grid="1" gridSize="10" guides="1" tooltips="1" connect="1" arrows="1" fold="1" page="1" pageScale="1" pageWidth="850" pageHeight="1100" math="0" shadow="0">
      <root>
        <mxCell id="zaW4OMNdO86RF7MU5uRd-0" />
        <mxCell id="zaW4OMNdO86RF7MU5uRd-1" parent="zaW4OMNdO86RF7MU5uRd-0" />
        <mxCell id="zaW4OMNdO86RF7MU5uRd-2" value="Server" style="rounded=0;whiteSpace=wrap;html=1;fontSize=16;" vertex="1" parent="zaW4OMNdO86RF7MU5uRd-1">
          <mxGeometry x="30" y="270" width="120" height="60" as="geometry" />
        </mxCell>
        <mxCell id="zaW4OMNdO86RF7MU5uRd-16" value="" style="endArrow=classic;html=1;rounded=0;" edge="1" parent="zaW4OMNdO86RF7MU5uRd-1">
          <mxGeometry width="50" height="50" relative="1" as="geometry">
            <mxPoint x="180" y="300" as="sourcePoint" />
            <mxPoint x="230" y="300" as="targetPoint" />
          </mxGeometry>
        </mxCell>
        <mxCell id="zaW4OMNdO86RF7MU5uRd-17" value="Database&lt;div&gt;Storage&lt;/div&gt;" style="rounded=0;whiteSpace=wrap;html=1;fontSize=16;" vertex="1" parent="zaW4OMNdO86RF7MU5uRd-1">
          <mxGeometry x="952" y="165" width="120" height="60" as="geometry" />
        </mxCell>
        <mxCell id="zaW4OMNdO86RF7MU5uRd-18" value="Bundle Storage" style="rounded=0;whiteSpace=wrap;html=1;fontSize=16;verticalAlign=top;" vertex="1" parent="zaW4OMNdO86RF7MU5uRd-1">
          <mxGeometry x="952" y="245" width="220" height="140" as="geometry" />
        </mxCell>
        <mxCell id="zaW4OMNdO86RF7MU5uRd-19" value="Document Storage" style="rounded=0;whiteSpace=wrap;html=1;fontSize=16;" vertex="1" parent="zaW4OMNdO86RF7MU5uRd-1">
          <mxGeometry x="1002" y="279" width="120" height="60" as="geometry" />
        </mxCell>
        <mxCell id="zaW4OMNdO86RF7MU5uRd-20" value="User&amp;nbsp;&lt;div&gt;Storage&lt;/div&gt;" style="rounded=0;whiteSpace=wrap;html=1;fontSize=16;" vertex="1" parent="zaW4OMNdO86RF7MU5uRd-1">
          <mxGeometry x="952" y="408" width="120" height="60" as="geometry" />
        </mxCell>
        <mxCell id="2Vq98HR9hd6z87qWAzIS-0" value="" style="group" vertex="1" connectable="0" parent="zaW4OMNdO86RF7MU5uRd-1">
          <mxGeometry x="490" y="125" width="200" height="350" as="geometry" />
        </mxCell>
        <mxCell id="zaW4OMNdO86RF7MU5uRd-4" value="Service Manager" style="rounded=0;whiteSpace=wrap;html=1;fontSize=16;verticalAlign=top;" vertex="1" parent="2Vq98HR9hd6z87qWAzIS-0">
          <mxGeometry width="170" height="350" as="geometry" />
        </mxCell>
        <mxCell id="zaW4OMNdO86RF7MU5uRd-8" value="DB Service" style="rounded=0;whiteSpace=wrap;html=1;fontSize=16;" vertex="1" parent="2Vq98HR9hd6z87qWAzIS-0">
          <mxGeometry x="80" y="40" width="120" height="60" as="geometry" />
        </mxCell>
        <mxCell id="zaW4OMNdO86RF7MU5uRd-9" value="Bundle&amp;nbsp;&lt;div&gt;Service&lt;/div&gt;" style="rounded=0;whiteSpace=wrap;html=1;fontSize=16;" vertex="1" parent="2Vq98HR9hd6z87qWAzIS-0">
          <mxGeometry x="80" y="120" width="120" height="60" as="geometry" />
        </mxCell>
        <mxCell id="zaW4OMNdO86RF7MU5uRd-10" value="Document&lt;div&gt;Service&lt;/div&gt;" style="rounded=0;whiteSpace=wrap;html=1;fontSize=16;" vertex="1" parent="2Vq98HR9hd6z87qWAzIS-0">
          <mxGeometry x="80" y="200" width="120" height="60" as="geometry" />
        </mxCell>
        <mxCell id="zaW4OMNdO86RF7MU5uRd-11" value="User&lt;div&gt;Service&lt;/div&gt;" style="rounded=0;whiteSpace=wrap;html=1;fontSize=16;" vertex="1" parent="2Vq98HR9hd6z87qWAzIS-0">
          <mxGeometry x="80" y="280" width="120" height="60" as="geometry" />
        </mxCell>
        <mxCell id="2Vq98HR9hd6z87qWAzIS-3" value="" style="group" vertex="1" connectable="0" parent="zaW4OMNdO86RF7MU5uRd-1">
          <mxGeometry x="220" y="120" width="211" height="350" as="geometry" />
        </mxCell>
        <mxCell id="2Vq98HR9hd6z87qWAzIS-2" value="Command Director" style="rounded=0;whiteSpace=wrap;html=1;fontSize=16;verticalAlign=top;" vertex="1" parent="2Vq98HR9hd6z87qWAzIS-3">
          <mxGeometry width="170" height="350" as="geometry" />
        </mxCell>
        <mxCell id="zaW4OMNdO86RF7MU5uRd-3" value="Database Parser" style="rounded=0;whiteSpace=wrap;html=1;fontSize=16;" vertex="1" parent="2Vq98HR9hd6z87qWAzIS-3">
          <mxGeometry x="91" y="40" width="120" height="60" as="geometry" />
        </mxCell>
        <mxCell id="zaW4OMNdO86RF7MU5uRd-5" value="Bundle&amp;nbsp;&lt;div&gt;Parser&lt;/div&gt;" style="rounded=0;whiteSpace=wrap;html=1;fontSize=16;" vertex="1" parent="2Vq98HR9hd6z87qWAzIS-3">
          <mxGeometry x="91" y="120" width="120" height="60" as="geometry" />
        </mxCell>
        <mxCell id="zaW4OMNdO86RF7MU5uRd-6" value="Document Parser" style="rounded=0;whiteSpace=wrap;html=1;fontSize=16;" vertex="1" parent="2Vq98HR9hd6z87qWAzIS-3">
          <mxGeometry x="90" y="200" width="120" height="60" as="geometry" />
        </mxCell>
        <mxCell id="zaW4OMNdO86RF7MU5uRd-7" value="User&amp;nbsp;&lt;div&gt;Parser&lt;/div&gt;" style="rounded=0;whiteSpace=wrap;html=1;fontSize=16;" vertex="1" parent="2Vq98HR9hd6z87qWAzIS-3">
          <mxGeometry x="90" y="280" width="120" height="60" as="geometry" />
        </mxCell>
        <mxCell id="2Vq98HR9hd6z87qWAzIS-4" value="" style="endArrow=classic;html=1;rounded=0;" edge="1" parent="zaW4OMNdO86RF7MU5uRd-1">
          <mxGeometry width="50" height="50" relative="1" as="geometry">
            <mxPoint x="700" y="200" as="sourcePoint" />
            <mxPoint x="750" y="200" as="targetPoint" />
          </mxGeometry>
        </mxCell>
        <mxCell id="2Vq98HR9hd6z87qWAzIS-5" value="" style="endArrow=classic;html=1;rounded=0;" edge="1" parent="zaW4OMNdO86RF7MU5uRd-1">
          <mxGeometry width="50" height="50" relative="1" as="geometry">
            <mxPoint x="700" y="279" as="sourcePoint" />
            <mxPoint x="750" y="279" as="targetPoint" />
          </mxGeometry>
        </mxCell>
        <mxCell id="2Vq98HR9hd6z87qWAzIS-6" value="" style="endArrow=classic;html=1;rounded=0;" edge="1" parent="zaW4OMNdO86RF7MU5uRd-1">
          <mxGeometry width="50" height="50" relative="1" as="geometry">
            <mxPoint x="700" y="350" as="sourcePoint" />
            <mxPoint x="750" y="350" as="targetPoint" />
          </mxGeometry>
        </mxCell>
        <mxCell id="2Vq98HR9hd6z87qWAzIS-7" value="" style="endArrow=classic;html=1;rounded=0;" edge="1" parent="zaW4OMNdO86RF7MU5uRd-1">
          <mxGeometry width="50" height="50" relative="1" as="geometry">
            <mxPoint x="700" y="437.5" as="sourcePoint" />
            <mxPoint x="750" y="437.5" as="targetPoint" />
          </mxGeometry>
        </mxCell>
        <mxCell id="2Vq98HR9hd6z87qWAzIS-8" value="" style="endArrow=classic;html=1;rounded=0;" edge="1" parent="zaW4OMNdO86RF7MU5uRd-1">
          <mxGeometry width="50" height="50" relative="1" as="geometry">
            <mxPoint x="440" y="195.75" as="sourcePoint" />
            <mxPoint x="490" y="195.75" as="targetPoint" />
          </mxGeometry>
        </mxCell>
        <mxCell id="2Vq98HR9hd6z87qWAzIS-9" value="" style="endArrow=classic;html=1;rounded=0;" edge="1" parent="zaW4OMNdO86RF7MU5uRd-1">
          <mxGeometry width="50" height="50" relative="1" as="geometry">
            <mxPoint x="440" y="274.75" as="sourcePoint" />
            <mxPoint x="490" y="274.75" as="targetPoint" />
          </mxGeometry>
        </mxCell>
        <mxCell id="2Vq98HR9hd6z87qWAzIS-10" value="" style="endArrow=classic;html=1;rounded=0;" edge="1" parent="zaW4OMNdO86RF7MU5uRd-1">
          <mxGeometry width="50" height="50" relative="1" as="geometry">
            <mxPoint x="440" y="345.75" as="sourcePoint" />
            <mxPoint x="490" y="345.75" as="targetPoint" />
          </mxGeometry>
        </mxCell>
        <mxCell id="2Vq98HR9hd6z87qWAzIS-11" value="" style="endArrow=classic;html=1;rounded=0;" edge="1" parent="zaW4OMNdO86RF7MU5uRd-1">
          <mxGeometry width="50" height="50" relative="1" as="geometry">
            <mxPoint x="440" y="433.25" as="sourcePoint" />
            <mxPoint x="490" y="433.25" as="targetPoint" />
          </mxGeometry>
        </mxCell>
        <mxCell id="Kt1kIQdXDjlamPQew6Yt-0" value="DB Factory" style="rounded=0;whiteSpace=wrap;html=1;fontSize=16;" vertex="1" parent="zaW4OMNdO86RF7MU5uRd-1">
          <mxGeometry x="770" y="165" width="120" height="60" as="geometry" />
        </mxCell>
        <mxCell id="Kt1kIQdXDjlamPQew6Yt-1" value="Bundle Factory" style="rounded=0;whiteSpace=wrap;html=1;fontSize=16;" vertex="1" parent="zaW4OMNdO86RF7MU5uRd-1">
          <mxGeometry x="770" y="248" width="120" height="60" as="geometry" />
        </mxCell>
        <mxCell id="Kt1kIQdXDjlamPQew6Yt-2" value="Document Factory" style="rounded=0;whiteSpace=wrap;html=1;fontSize=16;" vertex="1" parent="zaW4OMNdO86RF7MU5uRd-1">
          <mxGeometry x="770" y="326" width="120" height="60" as="geometry" />
        </mxCell>
        <mxCell id="Kt1kIQdXDjlamPQew6Yt-3" value="User Factory" style="rounded=0;whiteSpace=wrap;html=1;fontSize=16;" vertex="1" parent="zaW4OMNdO86RF7MU5uRd-1">
          <mxGeometry x="770" y="406" width="120" height="60" as="geometry" />
        </mxCell>
        <mxCell id="Kt1kIQdXDjlamPQew6Yt-4" value="" style="endArrow=classic;html=1;rounded=0;" edge="1" parent="zaW4OMNdO86RF7MU5uRd-1">
          <mxGeometry width="50" height="50" relative="1" as="geometry">
            <mxPoint x="890" y="200.75" as="sourcePoint" />
            <mxPoint x="940" y="200.75" as="targetPoint" />
          </mxGeometry>
        </mxCell>
        <mxCell id="Kt1kIQdXDjlamPQew6Yt-5" value="" style="endArrow=classic;html=1;rounded=0;" edge="1" parent="zaW4OMNdO86RF7MU5uRd-1">
          <mxGeometry width="50" height="50" relative="1" as="geometry">
            <mxPoint x="890" y="279.75" as="sourcePoint" />
            <mxPoint x="940" y="279.75" as="targetPoint" />
          </mxGeometry>
        </mxCell>
        <mxCell id="Kt1kIQdXDjlamPQew6Yt-6" value="" style="endArrow=classic;html=1;rounded=0;" edge="1" parent="zaW4OMNdO86RF7MU5uRd-1">
          <mxGeometry width="50" height="50" relative="1" as="geometry">
            <mxPoint x="890" y="350.75" as="sourcePoint" />
            <mxPoint x="940" y="350.75" as="targetPoint" />
          </mxGeometry>
        </mxCell>
        <mxCell id="Kt1kIQdXDjlamPQew6Yt-7" value="" style="endArrow=classic;html=1;rounded=0;" edge="1" parent="zaW4OMNdO86RF7MU5uRd-1">
          <mxGeometry width="50" height="50" relative="1" as="geometry">
            <mxPoint x="890" y="438.25" as="sourcePoint" />
            <mxPoint x="940" y="438.25" as="targetPoint" />
          </mxGeometry>
        </mxCell>
      </root>
    </mxGraphModel>
  </diagram>
  <diagram id="bqLCJncTLt-5U1wE7xTK" name="Page-3">
    <mxGraphModel dx="1234" dy="739" grid="1" gridSize="10" guides="1" tooltips="1" connect="1" arrows="1" fold="1" page="1" pageScale="1" pageWidth="850" pageHeight="1100" math="0" shadow="0">
      <root>
        <mxCell id="0" />
        <mxCell id="1" parent="0" />
        <mxCell id="cK9qREqeMxDBPAdysuE4-9" value="" style="group" vertex="1" connectable="0" parent="1">
          <mxGeometry x="80" y="100" width="250" height="380" as="geometry" />
        </mxCell>
        <mxCell id="cK9qREqeMxDBPAdysuE4-1" value="&lt;font style=&quot;font-size: 18px;&quot;&gt;SCENE&lt;/font&gt;" style="rounded=0;whiteSpace=wrap;html=1;verticalAlign=top;" vertex="1" parent="cK9qREqeMxDBPAdysuE4-9">
          <mxGeometry x="-40" y="-50" width="290" height="430" as="geometry" />
        </mxCell>
        <mxCell id="cK9qREqeMxDBPAdysuE4-2" value="Character" style="rounded=0;whiteSpace=wrap;html=1;" vertex="1" parent="cK9qREqeMxDBPAdysuE4-9">
          <mxGeometry width="110" height="40" as="geometry" />
        </mxCell>
        <mxCell id="cK9qREqeMxDBPAdysuE4-3" value="Prompt" style="rounded=0;whiteSpace=wrap;html=1;" vertex="1" parent="cK9qREqeMxDBPAdysuE4-9">
          <mxGeometry y="60" width="110" height="40" as="geometry" />
        </mxCell>
        <mxCell id="cK9qREqeMxDBPAdysuE4-8" value="" style="group" vertex="1" connectable="0" parent="cK9qREqeMxDBPAdysuE4-9">
          <mxGeometry y="130" width="210" height="190" as="geometry" />
        </mxCell>
        <mxCell id="cK9qREqeMxDBPAdysuE4-4" value="Options" style="rounded=0;whiteSpace=wrap;html=1;verticalAlign=top;" vertex="1" parent="cK9qREqeMxDBPAdysuE4-8">
          <mxGeometry width="210" height="190" as="geometry" />
        </mxCell>
        <mxCell id="cK9qREqeMxDBPAdysuE4-5" value="Option1" style="rounded=0;whiteSpace=wrap;html=1;" vertex="1" parent="cK9qREqeMxDBPAdysuE4-8">
          <mxGeometry x="45" y="40" width="105" height="30" as="geometry" />
        </mxCell>
        <mxCell id="cK9qREqeMxDBPAdysuE4-6" value="Option2" style="rounded=0;whiteSpace=wrap;html=1;" vertex="1" parent="cK9qREqeMxDBPAdysuE4-8">
          <mxGeometry x="45" y="90" width="105" height="30" as="geometry" />
        </mxCell>
        <mxCell id="cK9qREqeMxDBPAdysuE4-7" value="Option3" style="rounded=0;whiteSpace=wrap;html=1;" vertex="1" parent="cK9qREqeMxDBPAdysuE4-8">
          <mxGeometry x="45" y="140" width="105" height="30" as="geometry" />
        </mxCell>
        <mxCell id="cK9qREqeMxDBPAdysuE4-28" value="" style="endArrow=classic;html=1;rounded=0;" edge="1" parent="cK9qREqeMxDBPAdysuE4-8">
          <mxGeometry width="50" height="50" relative="1" as="geometry">
            <mxPoint x="160" y="60" as="sourcePoint" />
            <mxPoint x="450" y="-90" as="targetPoint" />
          </mxGeometry>
        </mxCell>
        <mxCell id="cK9qREqeMxDBPAdysuE4-39" value="" style="endArrow=classic;html=1;rounded=0;" edge="1" parent="cK9qREqeMxDBPAdysuE4-8">
          <mxGeometry width="50" height="50" relative="1" as="geometry">
            <mxPoint x="160" y="160" as="sourcePoint" />
            <mxPoint x="220" y="320" as="targetPoint" />
          </mxGeometry>
        </mxCell>
        <mxCell id="cK9qREqeMxDBPAdysuE4-10" value="" style="group" vertex="1" connectable="0" parent="1">
          <mxGeometry x="590" y="100" width="250" height="380" as="geometry" />
        </mxCell>
        <mxCell id="cK9qREqeMxDBPAdysuE4-11" value="&lt;font style=&quot;font-size: 18px;&quot;&gt;SCENE&lt;/font&gt;" style="rounded=0;whiteSpace=wrap;html=1;verticalAlign=top;" vertex="1" parent="cK9qREqeMxDBPAdysuE4-10">
          <mxGeometry x="-40" y="-50" width="290" height="430" as="geometry" />
        </mxCell>
        <mxCell id="cK9qREqeMxDBPAdysuE4-12" value="Character" style="rounded=0;whiteSpace=wrap;html=1;" vertex="1" parent="cK9qREqeMxDBPAdysuE4-10">
          <mxGeometry width="110" height="40" as="geometry" />
        </mxCell>
        <mxCell id="cK9qREqeMxDBPAdysuE4-13" value="Prompt" style="rounded=0;whiteSpace=wrap;html=1;" vertex="1" parent="cK9qREqeMxDBPAdysuE4-10">
          <mxGeometry y="60" width="110" height="40" as="geometry" />
        </mxCell>
        <mxCell id="cK9qREqeMxDBPAdysuE4-14" value="" style="group" vertex="1" connectable="0" parent="cK9qREqeMxDBPAdysuE4-10">
          <mxGeometry y="130" width="210" height="190" as="geometry" />
        </mxCell>
        <mxCell id="cK9qREqeMxDBPAdysuE4-15" value="Options" style="rounded=0;whiteSpace=wrap;html=1;verticalAlign=top;" vertex="1" parent="cK9qREqeMxDBPAdysuE4-14">
          <mxGeometry width="210" height="190" as="geometry" />
        </mxCell>
        <mxCell id="cK9qREqeMxDBPAdysuE4-16" value="Option1" style="rounded=0;whiteSpace=wrap;html=1;" vertex="1" parent="cK9qREqeMxDBPAdysuE4-14">
          <mxGeometry x="45" y="40" width="105" height="30" as="geometry" />
        </mxCell>
        <mxCell id="cK9qREqeMxDBPAdysuE4-17" value="Option2" style="rounded=0;whiteSpace=wrap;html=1;" vertex="1" parent="cK9qREqeMxDBPAdysuE4-14">
          <mxGeometry x="45" y="90" width="105" height="30" as="geometry" />
        </mxCell>
        <mxCell id="cK9qREqeMxDBPAdysuE4-18" value="Option3" style="rounded=0;whiteSpace=wrap;html=1;" vertex="1" parent="cK9qREqeMxDBPAdysuE4-14">
          <mxGeometry x="45" y="140" width="105" height="30" as="geometry" />
        </mxCell>
        <mxCell id="cK9qREqeMxDBPAdysuE4-19" value="" style="group" vertex="1" connectable="0" parent="1">
          <mxGeometry x="570" y="570" width="250" height="380" as="geometry" />
        </mxCell>
        <mxCell id="cK9qREqeMxDBPAdysuE4-20" value="&lt;font style=&quot;font-size: 18px;&quot;&gt;SCENE&lt;/font&gt;" style="rounded=0;whiteSpace=wrap;html=1;verticalAlign=top;" vertex="1" parent="cK9qREqeMxDBPAdysuE4-19">
          <mxGeometry x="-40" y="-50" width="290" height="430" as="geometry" />
        </mxCell>
        <mxCell id="cK9qREqeMxDBPAdysuE4-21" value="Character" style="rounded=0;whiteSpace=wrap;html=1;" vertex="1" parent="cK9qREqeMxDBPAdysuE4-19">
          <mxGeometry width="110" height="40" as="geometry" />
        </mxCell>
        <mxCell id="cK9qREqeMxDBPAdysuE4-22" value="Prompt" style="rounded=0;whiteSpace=wrap;html=1;" vertex="1" parent="cK9qREqeMxDBPAdysuE4-19">
          <mxGeometry y="60" width="110" height="40" as="geometry" />
        </mxCell>
        <mxCell id="cK9qREqeMxDBPAdysuE4-23" value="" style="group" vertex="1" connectable="0" parent="cK9qREqeMxDBPAdysuE4-19">
          <mxGeometry y="130" width="210" height="190" as="geometry" />
        </mxCell>
        <mxCell id="cK9qREqeMxDBPAdysuE4-24" value="Options" style="rounded=0;whiteSpace=wrap;html=1;verticalAlign=top;" vertex="1" parent="cK9qREqeMxDBPAdysuE4-23">
          <mxGeometry width="210" height="190" as="geometry" />
        </mxCell>
        <mxCell id="cK9qREqeMxDBPAdysuE4-25" value="Option1" style="rounded=0;whiteSpace=wrap;html=1;" vertex="1" parent="cK9qREqeMxDBPAdysuE4-23">
          <mxGeometry x="45" y="40" width="105" height="30" as="geometry" />
        </mxCell>
        <mxCell id="cK9qREqeMxDBPAdysuE4-26" value="Option2" style="rounded=0;whiteSpace=wrap;html=1;" vertex="1" parent="cK9qREqeMxDBPAdysuE4-23">
          <mxGeometry x="45" y="90" width="105" height="30" as="geometry" />
        </mxCell>
        <mxCell id="cK9qREqeMxDBPAdysuE4-27" value="Option3" style="rounded=0;whiteSpace=wrap;html=1;" vertex="1" parent="cK9qREqeMxDBPAdysuE4-23">
          <mxGeometry x="45" y="140" width="105" height="30" as="geometry" />
        </mxCell>
        <mxCell id="cK9qREqeMxDBPAdysuE4-30" value="" style="group" vertex="1" connectable="0" parent="1">
          <mxGeometry x="150" y="650" width="250" height="380" as="geometry" />
        </mxCell>
        <mxCell id="cK9qREqeMxDBPAdysuE4-31" value="&lt;font style=&quot;font-size: 18px;&quot;&gt;SCENE&lt;/font&gt;" style="rounded=0;whiteSpace=wrap;html=1;verticalAlign=top;" vertex="1" parent="cK9qREqeMxDBPAdysuE4-30">
          <mxGeometry x="-40" y="-50" width="290" height="430" as="geometry" />
        </mxCell>
        <mxCell id="cK9qREqeMxDBPAdysuE4-32" value="Character" style="rounded=0;whiteSpace=wrap;html=1;" vertex="1" parent="cK9qREqeMxDBPAdysuE4-30">
          <mxGeometry width="110" height="40" as="geometry" />
        </mxCell>
        <mxCell id="cK9qREqeMxDBPAdysuE4-33" value="Prompt" style="rounded=0;whiteSpace=wrap;html=1;" vertex="1" parent="cK9qREqeMxDBPAdysuE4-30">
          <mxGeometry y="60" width="110" height="40" as="geometry" />
        </mxCell>
        <mxCell id="cK9qREqeMxDBPAdysuE4-34" value="" style="group" vertex="1" connectable="0" parent="cK9qREqeMxDBPAdysuE4-30">
          <mxGeometry y="130" width="210" height="190" as="geometry" />
        </mxCell>
        <mxCell id="cK9qREqeMxDBPAdysuE4-35" value="Options" style="rounded=0;whiteSpace=wrap;html=1;verticalAlign=top;" vertex="1" parent="cK9qREqeMxDBPAdysuE4-34">
          <mxGeometry width="210" height="190" as="geometry" />
        </mxCell>
        <mxCell id="cK9qREqeMxDBPAdysuE4-36" value="Option1" style="rounded=0;whiteSpace=wrap;html=1;" vertex="1" parent="cK9qREqeMxDBPAdysuE4-34">
          <mxGeometry x="45" y="40" width="105" height="30" as="geometry" />
        </mxCell>
        <mxCell id="cK9qREqeMxDBPAdysuE4-37" value="Option2" style="rounded=0;whiteSpace=wrap;html=1;" vertex="1" parent="cK9qREqeMxDBPAdysuE4-34">
          <mxGeometry x="45" y="90" width="105" height="30" as="geometry" />
        </mxCell>
        <mxCell id="cK9qREqeMxDBPAdysuE4-38" value="Option3" style="rounded=0;whiteSpace=wrap;html=1;" vertex="1" parent="cK9qREqeMxDBPAdysuE4-34">
          <mxGeometry x="45" y="140" width="105" height="30" as="geometry" />
        </mxCell>
        <mxCell id="cK9qREqeMxDBPAdysuE4-29" value="" style="endArrow=classic;html=1;rounded=0;" edge="1" parent="1">
          <mxGeometry width="50" height="50" relative="1" as="geometry">
            <mxPoint x="240" y="340" as="sourcePoint" />
            <mxPoint x="510" y="570" as="targetPoint" />
          </mxGeometry>
        </mxCell>
      </root>
    </mxGraphModel>
  </diagram>
</mxfile>
